# Blender 4.4.3
# www.blender.org
mtllib Arrow.mtl
o pCone2
v 0.004026 0.027000 -0.006973
v -0.004026 0.027000 -0.006973
v -0.008051 0.027000 -0.000000
v -0.004026 0.027000 0.006973
v 0.004026 0.027000 0.006973
v 0.008051 0.027000 -0.000000
v 0.000000 0.043103 -0.000000
v 0.001552 0.000418 -0.002689
v -0.001552 0.000418 -0.002689
v -0.003105 0.000418 -0.000000
v -0.001552 0.000418 0.002689
v 0.001552 0.000418 0.002689
v 0.003105 0.000418 -0.000000
v 0.001552 0.028512 -0.002689
v -0.001552 0.028512 -0.002689
v -0.003105 0.028512 -0.000000
v -0.001552 0.028512 0.002689
v 0.001552 0.028512 0.002689
v 0.003105 0.028512 -0.000000
v 0.000000 0.000418 -0.000000
v 0.000000 0.028512 -0.000000
vn -0.0000 -1.0000 -0.0000
vn -0.0000 0.3974 -0.9177
vn -0.7947 0.3974 -0.4588
vn -0.7947 0.3974 0.4588
vn -0.0000 0.3974 0.9177
vn 0.7947 0.3974 0.4588
vn 0.7947 0.3974 -0.4588
vn -0.0000 -0.0000 -1.0000
vn -0.8660 -0.0000 -0.5000
vn -0.8660 -0.0000 0.5000
vn -0.0000 -0.0000 1.0000
vn 0.8660 -0.0000 0.5000
vn 0.8660 -0.0000 -0.5000
vn -0.0000 1.0000 -0.0000
vt 0.625000 0.033494
vt 0.750000 0.250000
vt 0.375000 0.033494
vt 0.625000 0.466506
vt 0.375000 0.466506
vt 0.250000 0.250000
vt 0.250000 0.500000
vt 0.333333 0.500000
vt 0.500000 1.000000
vt 0.416667 0.500000
vt 0.500000 0.500000
vt 0.583333 0.500000
vt 0.666667 0.500000
vt 0.750000 0.500000
vt 0.375000 0.312500
vt 0.416667 0.312500
vt 0.375000 0.687500
vt 0.416667 0.687500
vt 0.458333 0.312500
vt 0.458333 0.687500
vt 0.500000 0.312500
vt 0.500000 0.687500
vt 0.541667 0.312500
vt 0.541667 0.687500
vt 0.583333 0.312500
vt 0.583333 0.687500
vt 0.625000 0.312500
vt 0.625000 0.687500
vt 0.421875 0.020934
vt 0.578125 0.020934
vt 0.500000 0.156250
vt 0.343750 0.156250
vt 0.421875 0.291566
vt 0.578125 0.291566
vt 0.656250 0.156250
vt 0.578125 0.979066
vt 0.421875 0.979066
vt 0.500000 0.843750
vt 0.343750 0.843750
vt 0.421875 0.708434
vt 0.578125 0.708434
vt 0.656250 0.843750
s 1
usemtl lambert1
f 1/1/1 6/2/1 2/3/1
f 6/2/1 5/4/1 2/3/1
f 5/4/1 4/5/1 2/3/1
f 4/5/1 3/6/1 2/3/1
f 1/7/2 2/8/2 7/9/2
f 2/8/3 3/10/3 7/9/3
f 3/10/4 4/11/4 7/9/4
f 4/11/5 5/12/5 7/9/5
f 5/12/6 6/13/6 7/9/6
f 6/13/7 1/14/7 7/9/7
f 8/15/8 9/16/8 14/17/8
f 14/17/8 9/16/8 15/18/8
f 9/16/9 10/19/9 15/18/9
f 15/18/9 10/19/9 16/20/9
f 10/19/10 11/21/10 16/20/10
f 16/20/10 11/21/10 17/22/10
f 11/21/11 12/23/11 17/22/11
f 17/22/11 12/23/11 18/24/11
f 12/23/12 13/25/12 18/24/12
f 18/24/12 13/25/12 19/26/12
f 13/25/13 8/27/13 19/26/13
f 19/26/13 8/27/13 14/28/13
f 9/29/1 8/30/1 20/31/1
f 10/32/1 9/29/1 20/31/1
f 11/33/1 10/32/1 20/31/1
f 12/34/1 11/33/1 20/31/1
f 13/35/1 12/34/1 20/31/1
f 8/30/1 13/35/1 20/31/1
f 14/36/14 15/37/14 21/38/14
f 15/37/14 16/39/14 21/38/14
f 16/39/14 17/40/14 21/38/14
f 17/40/14 18/41/14 21/38/14
f 18/41/14 19/42/14 21/38/14
f 19/42/14 14/36/14 21/38/14
